<svg xmlns="http://www.w3.org/2000/svg" width="134" height="41" fill="#fff"  xmlns:v="https://vecta.io/nano"><path d="M33.883 19.854l1.702-1.678c.743-.676 1.471-1.386 2.283-1.942.891-.605 1.52-.155 1.675 1.009.2 1.483-.626 2.39-1.442 3.267-.492.526-1.107.91-1.677 1.343-.492.373-.481.795.069 1.079a1.2 1.2 0 0 0 .691.175c.705-.119 1.489-.125 2.083-.498 1.374-.865 2.804-1.678 3.884-3.04.303-.381.572-.71.64-1.267.144-1.186 1.058-1.317 1.765-.974.204.099.312.44.465.67a2.44 2.44 0 0 1-.572.278c-.572.113-.819.446-.645 1.144a13.14 13.14 0 0 0 .721 2.047c.058.131.434.202.599.137l3.035-1.505c.361-.202.608-.623.891-.962.142-.167.218-.45.386-.541.224-.122.479-.153.721-.087.096.036.133.464.099.698a3.68 3.68 0 0 1-.29.728 7.9 7.9 0 0 0-.4 1.109.82.82 0 0 0 .007.328.77.77 0 0 0 .133.292c.097.099.371.052.541-.018 1.358-.577 2.49-1.452 3.123-2.987.133-.323.287-.71.734-.53.377.151.434.448.386.875l-.299 3.249c-.034.327-.15.641-.211.966l-.153 1.008.198.145c1.033-.9 2.142-1.708 3.078-2.721 1.13-1.224 2.128-2.608 3.154-3.951.26-.339.453-.605.88-.341s.434.438.112.89c-.568.795-1.094 1.627-1.576 2.491l1.778-1.601a3.14 3.14 0 0 1 .783-.486c.793-.345 1.48.24 1.363 1.188a11.82 11.82 0 0 1-.381 1.547c-.128.405-.192.833-.189 1.263l1.623-1.303 2.319-1.902a3.06 3.06 0 0 1 1.154-.528c1.011-.23 1.679.254 1.971 1.374.074.284.081.591.13.887.133.807.361.928 1.037.589a.7.7 0 0 1 .083-.04l.822-.278a5.86 5.86 0 0 1-.288.958 1.21 1.21 0 0 1-.259.377 1.06 1.06 0 0 1-.369.236c-.136.051-.279.071-.422.059s-.282-.055-.409-.127c-.29-.14-.548-.352-.755-.619a2.44 2.44 0 0 1-.439-.924 6.29 6.29 0 0 1-.115-.694c-.142-.956-.33-1.107-1.033-.605l-3.141 2.507-1.132.994a1.15 1.15 0 0 1-.75.3c-.273.004-.539-.094-.757-.278-.507-.383-.588-.904-.442-1.501l.451-1.628a1.46 1.46 0 0 0-.034-.454 1.15 1.15 0 0 0-.388.172l-2.735 2.761c-.269.315-.553.614-.851.893-.18.153-.59.315-.681.218-.18-.244-.286-.546-.305-.861-.025-.202.101-.426.18-.694l-3.837 3.251c-.218.231-.377.523-.46.845a40.46 40.46 0 0 1-3.44 7.82c-1.109 1.944-2.256 3.856-3.866 5.371-.766.724-1.572 1.093-2.548.936-.305-.05-.721-.202-.853-.448-.465-.91-.768-1.892-.408-2.967.139-.419.195-.892.4-1.263a30.93 30.93 0 0 1 1.787-2.987c.685-.972 1.482-1.848 2.232-2.761.373-.454.701-.98 1.139-1.337.941-.768 1.7-1.775 2.822-2.324.831-.403 1.729-.926 2.016-2.096l.505-1.791c.115-.543.15-1.107.231-1.755l-1.983 1.343c-.078.052-.162.087-.24.139-1.464 1.008-2.485.573-2.723-1.525l-3.202 1.521c-.256.135-.463.526-.573.849-.267.807-.819 1.23-1.457 1.547a1.07 1.07 0 0 1-.873.047 1.23 1.23 0 0 1-.664-.636 1.28 1.28 0 0 1 .494-1.632c.408-.278.867-.462 1.275-.742a.59.59 0 0 0 .144-.237c.03-.091.038-.189.024-.285-.15-.506-.361-.988-.604-1.614a10.36 10.36 0 0 1-.721.948c-1.399 1.45-2.935 2.672-4.819 3.189-1.053.288-2.09.28-2.908-.746a.87.87 0 0 0-.617-.325c-.777.036-1.338-.299-1.7-1.192-.434.932-.954 1.678-.992 2.67 0 .161-.166.43-.274.442-.18.024-.465-.069-.541-.214-.124-.268-.233-.649-.157-.914l.983-2.979-2.046 1.9a3.53 3.53 0 0 1-.692.466c-1.473.795-2.072.72-3.215-.545-.278-.309-.361-.268-.608-.026-.402.403-.846.736-1.276 1.093-.382.319-.786.343-1.156 0s-.694-.754-.525-1.386c.406-1.558 1.256-2.925 2.42-3.895.663-.561 2.257.258 2.405 1.188.007.259-.042.516-.144.748a5.19 5.19 0 0 1-.269.52c-.258.555-.078 1.047.206 1.507s.646.238.986.169c.981-.202 1.722-.889 2.524-1.489 1.356-1.008 2.452-2.201 2.861-4.058.2-.906.541-1.771.844-2.648.115-.341.267-.67.411-.996l.761-1.7a41.98 41.98 0 0 1 2.782-6.408l1.778-3.37a4.85 4.85 0 0 1 .469-.73c.671-.845.954-.978 1.414-.702a1.96 1.96 0 0 1 .733.924 2.24 2.24 0 0 1 .114 1.229l-.18.674c-.746 2.509-1.942 4.746-3.327 6.87l-2.164 3.324-1.623 2.265a14.89 14.89 0 0 0-.945 1.932l-.887 2.16.153.147zm19.148 6.914l-.956.68c-2.01 1.329-3.588 3.195-5.122 5.125-1.262 1.591-2.344 3.286-2.971 5.323-.162.526-.213 1.009.148 1.412.406.438.938.278 1.341.022 1.275-.806 2.343-1.965 3.101-3.366l2.129-3.917 2.021-4.143c.133-.29.175-.629.308-1.136zM41.975 1.686l-.195-.117a6.42 6.42 0 0 0-.681.754c-2.207 3.32-3.595 7.158-5.389 10.74a9.83 9.83 0 0 0-.361.984 7.36 7.36 0 0 0 1.024-1.285l2.014-2.927c.348-.528.633-1.107.952-1.66.361-.633.799-1.23 1.094-1.902.391-.891.692-1.835 1.008-2.767.197-.597.355-1.214.534-1.821zM34.93 21.551l.782-.605c.963-.682 1.888-1.412 2.524-2.499.249-.419.555-.942.146-1.343-.146-.143-.757.093-1.011.341-.992.966-1.933 1.997-2.872 3.026a.66.66 0 0 0-.12.274.7.7 0 0 0 .009.305c.115.218.353.341.543.502zm-11.4 1.182c1.262-.692 2.288-1.432 2.524-2.995a2.61 2.61 0 0 0-.038-.565c-.17.023-.335.073-.492.149-1.093.768-1.643 1.934-1.994 3.411zM7.964 12.055l1.89-1.662a5.46 5.46 0 0 1 .831-.593c1.572-.883 3.011.115 3.051 2.073.032 1.698-.361 3.312-.694 4.944a5.52 5.52 0 0 0-.022.948 6.29 6.29 0 0 0 .55-.698c1.486-2.519 3.011-5.008 4.856-7.221a34.25 34.25 0 0 1 2.836-2.904 2.44 2.44 0 0 1 .893-.575 2.24 2.24 0 0 1 1.025-.121c.721.085 1.118.448 1.358 1.234.316 1.043.18 2.098-.092 3.07-.667 2.42-4.468 11.529-4.762 12.304-.35.908-.768 1.783-1.206 2.783.658.605.977-.113 1.262-.169-.137.311-.222.674-.422.918-.456.557-.892.589-1.442.202s-.681-.67-.379-1.438c.797-2.017 1.605-4.05 2.508-6.019 1.15-2.509 2.243-5.042 3.002-7.731a15.94 15.94 0 0 0 .541-2.933c.097-1.138-.252-1.412-1.122-.867a10.92 10.92 0 0 0-2.052 1.761c-2.283 2.42-4.084 5.262-5.688 8.27-1.013 1.894-1.969 3.832-2.885 5.787-.254.551-.507.635-.97.526-.424-.099-.552-.343-.418-.793.225-.76.49-1.511.656-2.287l1.433-7.15c.146-.841.058-1.739.027-2.608-.018-.528-.343-.678-.764-.518a2.96 2.96 0 0 0-.732.377 15.75 15.75 0 0 0-3.341 3.334 5.04 5.04 0 0 0-.53 1.037c-.631 1.511-1.201 3.054-1.881 4.534-.624 1.355-1.361 2.644-2.048 3.961-.391.748-.801 1.484-1.163 2.247-.151.321-.317.684-.638.508a1.15 1.15 0 0 1-.325-.351c-.085-.141-.143-.301-.169-.469-.126-1.135.234-2.184.651-3.189 1.123-2.717 2.412-5.329 4.138-7.63.682-.912.874-1.983.999-3.066a14.85 14.85 0 0 0 .013-2.915c-.097-1.162-.575-2.152-1.637-2.525-1.033-.363-1.947-.032-2.659.914-.115.155-.224.403-.361.43-.279.063-.568.038-.835-.073-.319-.159-.209-.484-.079-.779a2.5 2.5 0 0 1 .591-.819 2.19 2.19 0 0 1 .837-.48c2.524-.908 5.229.567 5.36 4.355.029.623.009 1.257.009 2.067zm93.761 12.981l-1.341.93c-.972.575-1.885 1.285-3.026 1.46-.891.171-1.808-.003-2.598-.494-2.376-1.499-4.197-3.643-5.761-6.103l-2.852-4.385c-.344-.543-.676-.774-1.262-.419a3.4 3.4 0 0 1-1.197.403 1.18 1.18 0 0 0-.65.303 1.41 1.41 0 0 0-.401.647l-1.917 5.406c-.294.938-.38 1.96-.541 2.949-.09.563-.041 1.031.663.877.092-.02.294.099.294.151a.7.7 0 0 1-.144.403c-.429.494-.813.488-1.23-.018-.591-.72-.566-1.614-.46-2.479.227-1.833.642-3.604 1.442-5.244.314-.637.508-1.347.763-2.017.159-.419.114-.698-.343-.807a1.51 1.51 0 0 1-.633-.349c-.44-.42-.413-.881.099-1.19.631-.379 1.307-.664 1.944-1.035a1.67 1.67 0 0 0 .633-.633l2.506-5.091 1.834-3.227a7.54 7.54 0 0 1 .629-.855c.276-.349.59-.605 1.006-.27.332.27.361.948.079 1.368l-.974 1.44-1.758 3.251-1.471 2.42c-.279.415-.593.787-.389 1.333.101.274 1.262.716 1.514.581l2.241-1.261 2.811-1.966c1.321-.998 2.487-2.23 3.453-3.649.197-.288.361-.573.712-.301s.53.625.26 1.025c-.505.742-.994 1.527-1.623 2.134-1.908 1.864-4.078 3.278-6.379 4.455-1.031.528-1.215.288-.406 1.676.456.781.985 1.511 1.484 2.261l2.317 3.447c1.066 1.412 2.237 2.715 3.691 3.649a3.84 3.84 0 0 0 1.614.591 3.71 3.71 0 0 0 1.691-.188l3.544-1.355.13.175zm4.597-5.167l-1.262 1.17-2.704 2.806c-.181.181-.593.341-.756.236-.313-.202-.425-.605-.223-1.053l1.377-3.098-2.109.567c-.181.046-.361.159-.523.123-.961-.226-1.41.361-1.767 1.24a4.22 4.22 0 0 1-.795 1.21c-.568.631-1.311.736-1.899.353a1.88 1.88 0 0 1-.672-.904 2.13 2.13 0 0 1-.073-1.173c.081-.389.132-.823.325-1.14.337-.557.68-1.057.651-1.799 0-.226.306-.593.541-.684.925-.355 1.897.05 2.277 1.053.325.855.846 1.119 1.556.958a18.15 18.15 0 0 0 3.108-.908c.417-.175.698-.807 1.003-1.245.256-.377.516-.403.847-.159s.411.426.076.845a21.44 21.44 0 0 0-1.729 2.642l1.949-1.783a2.82 2.82 0 0 1 .707-.432c.831-.373 1.568.25 1.392 1.228-.159.877-.44 1.726-.698 2.705a1.48 1.48 0 0 0 .451-.155l2.484-2.154a8.69 8.69 0 0 1 1.753-1.21c1.424-.662 2.448.05 2.625 1.739-.004.163.004.326.025.488.181.605.41.708.952.474.056-.024.108-.061.166-.081l.819-.268a5.31 5.31 0 0 1-.289.966c-.398.762-1.309.869-1.936.214a2.64 2.64 0 0 1-.583-.822 2.9 2.9 0 0 1-.252-1.01c-.059-1.073-.299-1.24-1.102-.643l-3.696 3.025a5.5 5.5 0 0 1-.734.579 1.07 1.07 0 0 1-.694.16c-.241-.028-.467-.139-.649-.317a1.22 1.22 0 0 1-.415-1.325l.626-2.255-.15-.163zm-8.607.956c-.025-.036-.069-.155-.124-.163-.337-.048-.721-.202-1.004-.073-.411.202-.663 1.313-.478 1.698a.43.43 0 0 0 .105.14.38.38 0 0 0 .146.08c.312.028 1.361-1.253 1.356-1.682zm.18-1.113c.083-.073.251-.186.24-.214-.112-.29-.198-.641-.402-.823-.162-.145-.476-.099-.721-.089-.036 0-.126.355-.085.403.287.246.609.464.961.722h.007z"/><path d="M127.138 21.795l.622-.559 3.361-2.652c.334-.219.729-.291 1.107-.202.327.089.77.438.828.75.072.391-.144.893-.339 1.285-.151.304-.541.171-.593-.184-.008-.167.005-.334.039-.496l.064-.476c-1.279.418-2.206 1.311-3.136 2.166-.784.72-1.487 1.549-2.227 2.329l-.263.274c-.328.383-.705.359-1.06.101-.328-.24-.314-.605-.18-.988l1.622-4.459c.113-.301.18-.622.197-.948-1.017.573-1.632 1.559-2.303 2.489a20.76 20.76 0 0 1-1.72 2.182c-1.081 1.146-2.044 1.162-3.187.091-.307-.286-.437-.161-.666.042-.404.392-.836.745-1.292 1.057-.747.464-1.542-.04-1.623-.988-.031-.234-.014-.472.049-.698.515-1.412 1.235-2.691 2.343-3.61.567-.466 1.392-.202 2.099.581.478.526.395 1.059.016 1.613-.099.168-.169.357-.203.555-.15.678.14 1.117.768 1.13.862.018 1.457-.575 1.983-1.224.44-.547.761-1.21 1.199-1.759.704-.906 1.455-1.764 2.248-2.572.162-.132.349-.223.546-.265s.4-.034.594.023c.478.202.487.841.393 1.323-.147.612-.341 1.209-.581 1.783l-.856 2.195.151.111zm-9.803.938c1.239-.69 2.227-1.343 2.472-2.802.042-.248.049-.5.072-.75-.241.085-.519.111-.721.268-.939.75-1.46 1.819-1.823 3.284z"/></svg>